<svg width="460" height="120" viewBox="0 0 460 120" fill="none" xmlns="http://www.w3.org/2000/svg">
  <g transform="translate(0, 20)"><path d="M66.9901 42.8181C65.4024 42.8181 64.0926 41.548 64.0926 39.9206C64.0926 38.2933 65.3628 37.0231 66.9901 37.0231C68.5777 37.0231 69.8875 38.2933 69.8875 39.9206C69.8875 41.548 68.5777 42.8181 66.9901 42.8181ZM66.9901 51.5105C65.4024 51.5105 64.0926 50.2404 64.0926 48.6131C64.0926 47.0254 65.3628 45.7156 66.9901 45.7156C68.5777 45.7156 69.8875 46.9857 69.8875 48.6131C69.8479 50.2007 68.5777 51.5105 66.9901 51.5105ZM57.3451 32.9746C55.3209 32.9746 53.6935 31.3473 53.6935 29.323C53.6935 27.2988 55.3209 25.6715 57.3451 25.6715C59.3694 25.6715 60.9967 27.2988 60.9967 29.323C60.9967 31.3076 59.3694 32.9746 57.3451 32.9746ZM57.3451 43.5722C55.3209 43.5722 53.6935 41.9449 53.6935 39.9206C53.6935 37.8964 55.3209 36.269 57.3451 36.269C59.3694 36.269 60.9967 37.8964 60.9967 39.9206C60.9967 41.9449 59.3694 43.5722 57.3451 43.5722ZM57.3451 54.2492C55.3209 54.2492 53.6935 52.6219 53.6935 50.5976C53.6935 48.5733 55.3209 46.946 57.3451 46.946C59.3694 46.946 60.9967 48.5733 60.9967 50.5976C60.9967 52.6219 59.3694 54.2492 57.3451 54.2492ZM46.1522 31.5061C43.6119 31.5061 41.5877 29.4421 41.5877 26.9416C41.5877 24.4411 43.6517 22.3771 46.1522 22.3771C48.6924 22.3771 50.7167 24.4411 50.7167 26.9416C50.7167 29.4421 48.6924 31.5061 46.1522 31.5061ZM46.1522 44.4852C43.6119 44.4852 41.5877 42.4212 41.5877 39.9206C41.5877 37.3804 43.6517 35.3561 46.1522 35.3561C48.6924 35.3561 50.7167 37.4201 50.7167 39.9206C50.7564 42.4609 48.6924 44.4852 46.1522 44.4852ZM46.1522 57.5039C43.6119 57.5039 41.5877 55.4399 41.5877 52.9394C41.5877 50.4388 43.6517 48.3749 46.1522 48.3749C48.6924 48.3749 50.7167 50.4388 50.7167 52.9394C50.7167 55.4399 48.6924 57.5039 46.1522 57.5039ZM66.9901 28.3308C68.5777 28.3308 69.8875 29.6009 69.8875 31.2283C69.8875 32.8159 68.6175 34.1257 66.9901 34.1257C65.4024 34.1257 64.0926 32.8556 64.0926 31.2283C64.0926 29.6405 65.4024 28.3308 66.9901 28.3308ZM33.0937 29.6405C30.1169 29.6405 27.6957 27.2194 27.6957 24.2425C27.6957 21.2657 30.1169 18.8445 33.0937 18.8445C36.0706 18.8445 38.4918 21.2657 38.4918 24.2425C38.4918 27.2194 36.0706 29.6405 33.0937 29.6405ZM33.0937 45.3186C30.1169 45.3186 27.6957 42.8974 27.6957 39.9206C27.6957 36.9438 30.1169 34.5226 33.0937 34.5226C36.0706 34.5226 38.4918 36.9438 38.4918 39.9206C38.4918 42.8974 36.0706 45.3186 33.0937 45.3186ZM33.0937 61.0364C30.1169 61.0364 27.6957 58.6152 27.6957 55.6384C27.6957 52.6616 30.1169 50.2404 33.0937 50.2404C36.0706 50.2404 38.4918 52.6616 38.4918 55.6384C38.4918 58.6152 36.0706 61.0364 33.0937 61.0364ZM40.0001 4C20.1147 4 4 20.1147 4 40C4 59.8854 20.1147 76 40.0001 76C59.8853 76 76 59.8854 76 40C75.9603 20.1147 59.8457 4 40.0001 4Z" fill="#F7F7F7"></path></g>
  <text x="100" y="68" font-family="Fahkwang, &#39;Fahkwang Medium&#39;, sans-serif" font-size="56" font-weight="600" letter-spacing="1.5" fill="#F7F7F7">RAMS</text>
  <line x1="102" y1="80" x2="455" y2="80" stroke="#F7F7F7" stroke-width="1.2"></line>
  <text x="102" y="102" font-family="Avenir, &#39;Avenir Next&#39;, &#39;Helvetica Neue&#39;, sans-serif" font-size="14" font-weight="400" letter-spacing="2.4" fill="#BBB0C2">REFLEX ALLEN MANAGEMENT SYSTEM</text>
</svg>