<svg width="436" height="112" viewBox="0 0 436 112" fill="none" xmlns="http://www.w3.org/2000/svg">
<mask id="mask0_15_378" style="mask-type:luminance" maskUnits="userSpaceOnUse" x="16" y="16" width="404" height="80">
<path d="M420 16H16V96H420V16Z" fill="white"></path>
</mask>
<g mask="url(#mask0_15_378)">
<path d="M86.0402 59.155C84.2748 59.155 82.8184 57.743 82.8184 55.9338C82.8184 54.1247 84.2307 52.7126 86.0402 52.7126C87.8055 52.7126 89.2619 54.1247 89.2619 55.9338C89.2619 57.743 87.8055 59.155 86.0402 59.155ZM86.0402 68.8185C84.2748 68.8185 82.8184 67.4065 82.8184 65.5974C82.8184 63.8323 84.2307 62.3762 86.0402 62.3762C87.8055 62.3762 89.2619 63.7882 89.2619 65.5974C89.2178 67.3624 87.8055 68.8185 86.0402 68.8185ZM75.3157 48.2118C73.0649 48.2118 71.2554 46.4026 71.2554 44.1522C71.2554 41.9018 73.0649 40.0927 75.3157 40.0927C77.5665 40.0927 79.376 41.9018 79.376 44.1522C79.376 46.3585 77.5665 48.2118 75.3157 48.2118ZM75.3157 59.9934C73.0649 59.9934 71.2554 58.1842 71.2554 55.9338C71.2554 53.6834 73.0649 51.8742 75.3157 51.8742C77.5665 51.8742 79.376 53.6834 79.376 55.9338C79.376 58.1842 77.5665 59.9934 75.3157 59.9934ZM75.3157 71.8632C73.0649 71.8632 71.2554 70.0541 71.2554 67.8036C71.2554 65.5532 73.0649 63.7441 75.3157 63.7441C77.5665 63.7441 79.376 65.5532 79.376 67.8036C79.376 70.0541 77.5665 71.8632 75.3157 71.8632ZM62.87 46.5792C60.0454 46.5792 57.7946 44.2846 57.7946 41.5047C57.7946 38.7248 60.0896 36.4302 62.87 36.4302C65.6945 36.4302 67.9454 38.7248 67.9454 41.5047C67.9454 44.2846 65.6945 46.5792 62.87 46.5792ZM62.87 61.0083C60.0454 61.0083 57.7946 58.7137 57.7946 55.9338C57.7946 53.1098 60.0896 50.8593 62.87 50.8593C65.6945 50.8593 67.9454 53.1539 67.9454 55.9338C67.9895 58.7579 65.6945 61.0083 62.87 61.0083ZM62.87 75.4815C60.0454 75.4815 57.7946 73.187 57.7946 70.4071C57.7946 67.6271 60.0896 65.3326 62.87 65.3326C65.6945 65.3326 67.9454 67.6271 67.9454 70.4071C67.9454 73.187 65.6945 75.4815 62.87 75.4815ZM86.0402 43.0491C87.8055 43.0491 89.2619 44.4611 89.2619 46.2703C89.2619 48.0353 87.8497 49.4915 86.0402 49.4915C84.2748 49.4915 82.8184 48.0794 82.8184 46.2703C82.8184 44.5052 84.2748 43.0491 86.0402 43.0491ZM48.35 44.5052C45.04 44.5052 42.3478 41.8136 42.3478 38.5041C42.3478 35.1947 45.04 32.503 48.35 32.503C51.66 32.503 54.3522 35.1947 54.3522 38.5041C54.3522 41.8136 51.66 44.5052 48.35 44.5052ZM48.35 61.9349C45.04 61.9349 42.3478 59.2432 42.3478 55.9338C42.3478 52.6244 45.04 49.9327 48.35 49.9327C51.66 49.9327 54.3522 52.6244 54.3522 55.9338C54.3522 59.2432 51.66 61.9349 48.35 61.9349ZM48.35 79.4087C45.04 79.4087 42.3478 76.717 42.3478 73.4076C42.3478 70.0982 45.04 67.4065 48.35 67.4065C51.66 67.4065 54.3522 70.0982 54.3522 73.4076C54.3522 76.717 51.66 79.4087 48.35 79.4087ZM56.0293 16C33.9183 16 16 33.9151 16 56.0221C16 78.1291 33.9183 96.0441 56.0293 96.0441C78.1402 96.0441 96.0585 78.1291 96.0585 56.0221C96.0144 33.9151 78.0961 16 56.0293 16Z" fill="#1F0B28"></path>
<path d="M117.507 52.845H127.702C131.542 52.845 133.748 51.3006 134.278 48.256C134.366 47.8147 134.41 47.3734 134.41 46.9322C134.41 43.4904 132.204 41.7695 127.834 41.7695H117.507V52.845ZM108.107 78.4821V33.6503H127.879C137.897 33.6503 143.149 37.401 143.546 44.8583L143.59 45.9614V46.5792C143.59 48.5207 143.016 50.3299 141.913 52.0508C140.677 53.9482 139 55.3161 136.926 56.1545L135.69 56.4633C138.912 56.8605 140.942 58.7138 141.781 62.0232C142.046 62.994 142.178 64.2736 142.266 65.7298L142.531 71.3337C142.619 73.3635 142.708 74.6432 142.84 75.1285C143.105 76.1434 143.634 77.2466 144.517 78.438H134.94C133.969 77.2025 133.439 75.4815 133.307 73.3194L133.131 70.01L132.998 68.4656C132.777 65.6856 132.248 63.7441 131.409 62.6851C130.306 61.3613 128.452 60.6994 125.804 60.6994H117.507V78.438H108.107V78.4821Z" fill="#1F0B28"></path>
<path d="M156.169 57.8754H171.086L171.042 56.9046C170.909 55.0072 170.115 53.4187 168.658 52.139C167.202 50.9476 165.525 50.3299 163.539 50.3299C161.641 50.3299 160.008 50.9476 158.684 52.1831C157.36 53.4628 156.566 55.0954 156.257 56.9929L156.169 57.8754ZM180.266 64.406H156.08L156.124 65.4209C156.742 69.3922 158.817 71.775 162.347 72.5251C162.921 72.6575 163.495 72.7016 164.113 72.7016C166.584 72.7016 168.57 71.775 169.938 69.9217C170.38 69.3039 170.689 68.6862 170.865 68.0684H179.957C179.074 71.7309 177.176 74.5549 174.175 76.6288C171.351 78.6145 168.041 79.6294 164.245 79.6294C163.142 79.6294 161.818 79.497 160.317 79.2322C156.08 78.5262 152.77 76.5406 150.387 73.2753C148.092 70.1865 146.945 66.4358 146.945 62.0232C146.945 56.5957 148.489 52.1831 151.579 48.7413C154.668 45.3878 158.861 43.711 164.245 43.711C169.409 43.711 173.381 45.4319 176.249 48.9178C178.942 52.139 180.31 56.3751 180.31 61.6261V64.406H180.266Z" fill="#1F0B28"></path>
<path d="M181.81 51.1682V44.8582H185.782V43.4903C185.782 39.5631 186.93 36.7391 189.181 35.1064C191.034 33.6944 193.859 32.9884 197.566 32.9884H198.184L201.008 33.0325V40.0485H200.258C198.096 40.0485 196.728 40.1809 196.198 40.4015C195.183 40.8428 194.697 41.9901 194.697 43.7551V44.8141H200.92V51.1241H194.609V78.4379H185.65V51.1682H181.81Z" fill="#1F0B28"></path>
<path d="M212.616 33.6503H203.657V78.438H212.616V33.6503Z" fill="#1F0B28"></path>
<path d="M225.326 57.8754H240.243L240.199 56.9046C240.067 55.0072 239.272 53.4187 237.816 52.139C236.359 50.9476 234.682 50.3299 232.696 50.3299C230.799 50.3299 229.166 50.9476 227.842 52.1831C226.518 53.4628 225.723 55.0954 225.414 56.9929L225.326 57.8754ZM249.379 64.406H225.194L225.238 65.4209C225.856 69.3922 227.93 71.775 231.461 72.5251C232.034 72.6575 232.608 72.7016 233.226 72.7016C235.697 72.7016 237.683 71.775 239.052 69.9217C239.493 69.3039 239.802 68.6862 239.978 68.0684H249.07C248.187 71.7309 246.289 74.5549 243.288 76.6288C240.464 78.6145 237.154 79.6294 233.358 79.6294C232.255 79.6294 230.931 79.497 229.43 79.2322C225.194 78.5262 221.884 76.5406 219.5 73.2753C217.205 70.1865 216.058 66.4358 216.058 62.0232C216.058 56.5957 217.603 52.1831 220.692 48.7413C223.781 45.3878 227.974 43.711 233.358 43.711C238.522 43.711 242.494 45.4319 245.363 48.9178C248.055 52.139 249.423 56.3751 249.423 61.6261V64.406H249.379Z" fill="#1F0B28"></path>
<path d="M249.599 78.4821L261.736 60.8318L251.409 44.9024H261.515L266.9 53.9482C267.209 54.4336 267.341 54.9631 267.385 55.4926L268.003 53.7276L268.665 52.6244L273.343 44.8583H283.45L273.123 60.7877L285.259 78.438H274.314L268.798 69.9658C268.136 68.9509 267.694 67.8919 267.429 66.7888C267.253 67.8037 266.812 68.8627 266.105 69.9658L260.545 78.438H249.599V78.4821Z" fill="#1F0B28"></path>
<path d="M308.606 61.6702C307.591 62.3321 306.356 62.8175 304.855 63.1705L303.09 63.5676L302.295 63.7L300.706 64.0089L299.515 64.3177L298.456 64.5384C295.896 65.1561 294.616 66.4799 294.616 68.5097C294.616 71.1572 296.381 72.481 299.956 72.481C300.883 72.481 301.677 72.4369 302.428 72.3045C302.737 72.2604 303.178 72.128 303.796 71.8632C307.018 70.6277 308.606 68.8186 308.606 66.4358V61.6702ZM307.988 54.8748V53.8599C307.988 52.7127 307.371 51.786 306.179 51.1241C305.164 50.5505 304.016 50.2416 302.781 50.2416C301.898 50.2416 301.06 50.374 300.177 50.5946C297.97 51.2124 296.734 52.5803 296.514 54.6983V55.7132H288.172C288.172 54.7866 288.217 54.1247 288.305 53.6834C289.452 47.0204 294.219 43.711 302.604 43.711C306.709 43.711 310.019 44.5053 312.578 46.0938C315.624 47.9471 317.124 50.8152 317.124 54.7424V70.5395C317.124 71.4661 317.742 71.9074 318.978 71.9074L319.596 71.8632V78.7027L317.742 78.9675C316.815 79.0999 315.668 79.144 314.3 79.144C310.46 79.144 308.518 77.7761 308.518 75.0844V74.2019C307.68 75.7463 306.091 77.1142 303.708 78.2615C302.163 79.0116 300.442 79.3646 298.544 79.3646C294.969 79.3646 292.056 78.6145 289.761 77.0701C287.069 75.305 285.701 72.7016 285.701 69.3039C285.701 65.9504 286.937 63.3028 289.452 61.4054C291.262 59.9934 294.219 58.9344 298.235 58.2284L299.956 57.9195L301.192 57.7871L303.443 57.4782L304.767 57.2135C305.649 57.037 306.135 56.9487 306.179 56.9046C307.371 56.684 307.988 56.0221 307.988 54.8748Z" fill="#1F0B28"></path>
<path d="M332.571 33.6503H323.612V78.438H332.571V33.6503Z" fill="#1F0B28"></path>
<path d="M347.356 33.6503H338.397V78.438H347.356V33.6503Z" fill="#1F0B28"></path>
<path d="M361.17 57.8754H376.087L376.043 56.9046C375.91 55.0072 375.116 53.4187 373.66 52.139C372.203 50.9476 370.526 50.3299 368.54 50.3299C366.642 50.3299 365.009 50.9476 363.685 52.1831C362.361 53.4628 361.567 55.0954 361.258 56.9929L361.17 57.8754ZM385.223 64.406H361.037L361.081 65.4209C361.699 69.3922 363.774 71.775 367.304 72.5251C367.878 72.6575 368.452 72.7016 369.07 72.7016C371.541 72.7016 373.527 71.775 374.895 69.9217C375.337 69.3039 375.646 68.6862 375.822 68.0684H384.914C384.031 71.7309 382.133 74.5549 379.132 76.6288C376.308 78.6145 372.998 79.6294 369.202 79.6294C368.099 79.6294 366.775 79.497 365.274 79.2322C361.037 78.5262 357.727 76.5406 355.344 73.2753C353.049 70.1865 351.902 66.4358 351.902 62.0232C351.902 56.5957 353.446 52.1831 356.536 48.7413C359.625 45.3878 363.818 43.711 369.202 43.711C374.366 43.711 378.338 45.4319 381.206 48.9178C383.899 52.139 385.267 56.3751 385.267 61.6261V64.406H385.223Z" fill="#1F0B28"></path>
<path d="M389.68 78.4821V44.8582H398.463V49.0502L399.125 48.1677C401.375 45.2995 404.465 43.8875 408.393 43.8875C412.276 43.8875 415.233 45.2112 417.219 47.8146C419.029 50.1533 419.956 53.3745 419.956 57.3899V78.4821H410.997V57.6106C410.997 55.8014 410.511 54.257 409.584 53.0656C408.613 51.8742 407.245 51.2565 405.48 51.2565C403.273 51.2565 401.596 51.9625 400.449 53.3745C399.257 54.7865 398.639 56.6398 398.639 58.8461V78.4379H389.68V78.4821Z" fill="#1F0B28"></path>
</g>
</svg>